<svg width="16" height="17" viewBox="0 0 16 17" fill="none" xmlns="http://www.w3.org/2000/svg">
<path d="M3.216 13V12.496H3.312C3.496 12.496 3.66 12.476 3.804 12.436C3.956 12.396 4.076 12.316 4.164 12.196C4.252 12.068 4.296 11.88 4.296 11.632V5.2C4.296 4.96 4.248 4.784 4.152 4.672C4.064 4.552 3.944 4.476 3.792 4.444C3.648 4.404 3.488 4.384 3.312 4.384H3.216V3.88H5.424V8.512C5.424 8.616 5.42 8.752 5.412 8.92C5.412 9.088 5.408 9.256 5.4 9.424C5.392 9.592 5.384 9.736 5.376 9.856C5.376 9.968 5.376 10.024 5.376 10.024L6.876 8.38C7.052 8.188 7.184 8.028 7.272 7.9C7.368 7.764 7.436 7.652 7.476 7.564C7.516 7.468 7.536 7.384 7.536 7.312C7.536 7.208 7.488 7.144 7.392 7.12C7.296 7.088 7.148 7.072 6.948 7.072V6.568H9.6V7.072C9.464 7.072 9.328 7.096 9.192 7.144C9.056 7.192 8.92 7.264 8.784 7.36C8.648 7.456 8.508 7.576 8.364 7.72C8.22 7.856 8.068 8.012 7.908 8.188L7.068 9.136L8.664 11.512C8.808 11.72 8.944 11.9 9.072 12.052C9.208 12.196 9.352 12.308 9.504 12.388C9.656 12.46 9.82 12.496 9.996 12.496H10.032V13H9.864C9.52 13 9.232 12.988 9 12.964C8.768 12.94 8.572 12.892 8.412 12.82C8.26 12.74 8.112 12.624 7.968 12.472C7.832 12.312 7.68 12.1 7.512 11.836L6.312 9.952L5.424 10.612V11.692C5.424 11.924 5.468 12.1 5.556 12.22C5.652 12.332 5.772 12.408 5.916 12.448C6.068 12.48 6.232 12.496 6.408 12.496H6.444V13H3.216Z" fill="white"/>
<path d="M11.5195 13.084C11.3115 13.084 11.1315 13.024 10.9795 12.904C10.8355 12.784 10.7635 12.572 10.7635 12.268C10.7635 11.956 10.8355 11.744 10.9795 11.632C11.1315 11.512 11.3115 11.452 11.5195 11.452C11.7275 11.452 11.9035 11.512 12.0475 11.632C12.1995 11.744 12.2755 11.956 12.2755 12.268C12.2755 12.572 12.1995 12.784 12.0475 12.904C11.9035 13.024 11.7275 13.084 11.5195 13.084Z" fill="#FF3B30"/>
</svg>
